<?xml version="1.0" encoding="utf-8" standalone="no"?>
<!DOCTYPE svg PUBLIC "-//W3C//DTD SVG 1.1//EN"
  "http://www.w3.org/Graphics/SVG/1.1/DTD/svg11.dtd">
<svg xmlns:xlink="http://www.w3.org/1999/xlink" width="1440pt" height="576pt" viewBox="0 0 1440 576" xmlns="http://www.w3.org/2000/svg" version="1.1">
 <metadata>
  <rdf:RDF xmlns:dc="http://purl.org/dc/elements/1.1/" xmlns:cc="http://creativecommons.org/ns#" xmlns:rdf="http://www.w3.org/1999/02/22-rdf-syntax-ns#">
   <cc:Work>
    <dc:type rdf:resource="http://purl.org/dc/dcmitype/StillImage"/>
    <dc:date>2024-01-31T12:05:49.115378</dc:date>
    <dc:format>image/svg+xml</dc:format>
    <dc:creator>
     <cc:Agent>
      <dc:title>Matplotlib v3.7.1, https://matplotlib.org/</dc:title>
     </cc:Agent>
    </dc:creator>
   </cc:Work>
  </rdf:RDF>
 </metadata>
 <defs>
  <style type="text/css">*{stroke-linejoin: round; stroke-linecap: butt}</style>
 </defs>
 <g id="figure_1">
  <g id="patch_1">
   <path d="M 0 576 
L 1440 576 
L 1440 0 
L 0 0 
z
" style="fill: #ffffff"/>
  </g>
  <g id="axes_1">
   <g id="patch_2">
    <path d="M 57.6 403.2 
L 1425.6 403.2 
L 1425.6 5.76 
L 57.6 5.76 
z
" style="fill: #ffffff"/>
   </g>
   <g id="patch_3">
    <path d="M 119.781818 403.2 
L 165.41985 403.2 
L 165.41985 161.10858 
L 119.781818 161.10858 
z
" clip-path="url(#p216f1a87f9)" style="fill: #32cd32"/>
   </g>
   <g id="patch_4">
    <path d="M 176.829358 403.2 
L 222.467389 403.2 
L 222.467389 325.919999 
L 176.829358 325.919999 
z
" clip-path="url(#p216f1a87f9)" style="fill: #32cd32"/>
   </g>
   <g id="patch_5">
    <path d="M 233.876897 403.2 
L 279.514929 403.2 
L 279.514929 379.542859 
L 233.876897 379.542859 
z
" clip-path="url(#p216f1a87f9)" style="fill: #32cd32"/>
   </g>
   <g id="patch_6">
    <path d="M 290.924437 403.2 
L 336.562469 403.2 
L 336.562469 398.862858 
L 290.924437 398.862858 
z
" clip-path="url(#p216f1a87f9)" style="fill: #32cd32"/>
   </g>
   <g id="patch_7">
    <path d="M 347.971977 403.2 
L 393.610008 403.2 
L 393.610008 403.2 
L 347.971977 403.2 
z
" clip-path="url(#p216f1a87f9)" style="fill: #32cd32"/>
   </g>
   <g id="patch_8">
    <path d="M 405.019516 403.2 
L 450.657548 403.2 
L 450.657548 403.2 
L 405.019516 403.2 
z
" clip-path="url(#p216f1a87f9)" style="fill: #32cd32"/>
   </g>
   <g id="patch_9">
    <path d="M 462.067056 403.2 
L 507.705088 403.2 
L 507.705088 403.2 
L 462.067056 403.2 
z
" clip-path="url(#p216f1a87f9)" style="fill: #32cd32"/>
   </g>
   <g id="patch_10">
    <path d="M 519.114595 403.2 
L 564.752627 403.2 
L 564.752627 403.2 
L 519.114595 403.2 
z
" clip-path="url(#p216f1a87f9)" style="fill: #32cd32"/>
   </g>
   <g id="patch_11">
    <path d="M 576.162135 403.2 
L 621.800167 403.2 
L 621.800167 403.2 
L 576.162135 403.2 
z
" clip-path="url(#p216f1a87f9)" style="fill: #32cd32"/>
   </g>
   <g id="patch_12">
    <path d="M 633.209675 403.2 
L 678.847706 403.2 
L 678.847706 403.2 
L 633.209675 403.2 
z
" clip-path="url(#p216f1a87f9)" style="fill: #32cd32"/>
   </g>
   <g id="patch_13">
    <path d="M 690.257214 403.2 
L 735.895246 403.2 
L 735.895246 403.2 
L 690.257214 403.2 
z
" clip-path="url(#p216f1a87f9)" style="fill: #32cd32"/>
   </g>
   <g id="patch_14">
    <path d="M 747.304754 403.2 
L 792.942786 403.2 
L 792.942786 402.411429 
L 747.304754 402.411429 
z
" clip-path="url(#p216f1a87f9)" style="fill: #32cd32"/>
   </g>
   <g id="patch_15">
    <path d="M 804.352294 403.2 
L 849.990325 403.2 
L 849.990325 348 
L 804.352294 348 
z
" clip-path="url(#p216f1a87f9)" style="fill: #32cd32"/>
   </g>
   <g id="patch_16">
    <path d="M 861.399833 403.2 
L 907.037865 403.2 
L 907.037865 307.388573 
L 861.399833 307.388573 
z
" clip-path="url(#p216f1a87f9)" style="fill: #32cd32"/>
   </g>
   <g id="patch_17">
    <path d="M 918.447373 403.2 
L 964.085405 403.2 
L 964.085405 357.462864 
L 918.447373 357.462864 
z
" clip-path="url(#p216f1a87f9)" style="fill: #32cd32"/>
   </g>
   <g id="patch_18">
    <path d="M 975.494912 403.2 
L 1021.132944 403.2 
L 1021.132944 403.2 
L 975.494912 403.2 
z
" clip-path="url(#p216f1a87f9)" style="fill: #32cd32"/>
   </g>
   <g id="patch_19">
    <path d="M 1032.542452 403.2 
L 1078.180484 403.2 
L 1078.180484 403.2 
L 1032.542452 403.2 
z
" clip-path="url(#p216f1a87f9)" style="fill: #32cd32"/>
   </g>
   <g id="patch_20">
    <path d="M 1089.589992 403.2 
L 1135.228023 403.2 
L 1135.228023 403.2 
L 1089.589992 403.2 
z
" clip-path="url(#p216f1a87f9)" style="fill: #32cd32"/>
   </g>
   <g id="patch_21">
    <path d="M 1146.637531 403.2 
L 1192.275563 403.2 
L 1192.275563 370.868573 
L 1146.637531 370.868573 
z
" clip-path="url(#p216f1a87f9)" style="fill: #32cd32"/>
   </g>
   <g id="patch_22">
    <path d="M 1203.685071 403.2 
L 1249.323103 403.2 
L 1249.323103 195.527395 
L 1203.685071 195.527395 
z
" clip-path="url(#p216f1a87f9)" style="fill: #32cd32"/>
   </g>
   <g id="patch_23">
    <path d="M 1260.732611 403.2 
L 1306.370642 403.2 
L 1306.370642 319.309921 
L 1260.732611 319.309921 
z
" clip-path="url(#p216f1a87f9)" style="fill: #32cd32"/>
   </g>
   <g id="patch_24">
    <path d="M 1317.78015 403.2 
L 1363.418182 403.2 
L 1363.418182 308.571434 
L 1317.78015 308.571434 
z
" clip-path="url(#p216f1a87f9)" style="fill: #32cd32"/>
   </g>
   <g id="patch_25">
    <path d="M 119.781818 161.10858 
L 165.41985 161.10858 
L 165.41985 161.10858 
L 119.781818 161.10858 
z
" clip-path="url(#p216f1a87f9)" style="fill: #ffd700"/>
   </g>
   <g id="patch_26">
    <path d="M 176.829358 325.919999 
L 222.467389 325.919999 
L 222.467389 325.919999 
L 176.829358 325.919999 
z
" clip-path="url(#p216f1a87f9)" style="fill: #ffd700"/>
   </g>
   <g id="patch_27">
    <path d="M 233.876897 379.542859 
L 279.514929 379.542859 
L 279.514929 379.542859 
L 233.876897 379.542859 
z
" clip-path="url(#p216f1a87f9)" style="fill: #ffd700"/>
   </g>
   <g id="patch_28">
    <path d="M 290.924437 398.862858 
L 336.562469 398.862858 
L 336.562469 398.862858 
L 290.924437 398.862858 
z
" clip-path="url(#p216f1a87f9)" style="fill: #ffd700"/>
   </g>
   <g id="patch_29">
    <path d="M 347.971977 403.2 
L 393.610008 403.2 
L 393.610008 403.2 
L 347.971977 403.2 
z
" clip-path="url(#p216f1a87f9)" style="fill: #ffd700"/>
   </g>
   <g id="patch_30">
    <path d="M 405.019516 403.2 
L 450.657548 403.2 
L 450.657548 403.2 
L 405.019516 403.2 
z
" clip-path="url(#p216f1a87f9)" style="fill: #ffd700"/>
   </g>
   <g id="patch_31">
    <path d="M 462.067056 403.2 
L 507.705088 403.2 
L 507.705088 403.2 
L 462.067056 403.2 
z
" clip-path="url(#p216f1a87f9)" style="fill: #ffd700"/>
   </g>
   <g id="patch_32">
    <path d="M 519.114595 403.2 
L 564.752627 403.2 
L 564.752627 403.2 
L 519.114595 403.2 
z
" clip-path="url(#p216f1a87f9)" style="fill: #ffd700"/>
   </g>
   <g id="patch_33">
    <path d="M 576.162135 403.2 
L 621.800167 403.2 
L 621.800167 403.2 
L 576.162135 403.2 
z
" clip-path="url(#p216f1a87f9)" style="fill: #ffd700"/>
   </g>
   <g id="patch_34">
    <path d="M 633.209675 403.2 
L 678.847706 403.2 
L 678.847706 403.2 
L 633.209675 403.2 
z
" clip-path="url(#p216f1a87f9)" style="fill: #ffd700"/>
   </g>
   <g id="patch_35">
    <path d="M 690.257214 403.2 
L 735.895246 403.2 
L 735.895246 403.2 
L 690.257214 403.2 
z
" clip-path="url(#p216f1a87f9)" style="fill: #ffd700"/>
   </g>
   <g id="patch_36">
    <path d="M 747.304754 402.411429 
L 792.942786 402.411429 
L 792.942786 402.411429 
L 747.304754 402.411429 
z
" clip-path="url(#p216f1a87f9)" style="fill: #ffd700"/>
   </g>
   <g id="patch_37">
    <path d="M 804.352294 348 
L 849.990325 348 
L 849.990325 348 
L 804.352294 348 
z
" clip-path="url(#p216f1a87f9)" style="fill: #ffd700"/>
   </g>
   <g id="patch_38">
    <path d="M 861.399833 307.388573 
L 907.037865 307.388573 
L 907.037865 307.388573 
L 861.399833 307.388573 
z
" clip-path="url(#p216f1a87f9)" style="fill: #ffd700"/>
   </g>
   <g id="patch_39">
    <path d="M 918.447373 357.462864 
L 964.085405 357.462864 
L 964.085405 357.462864 
L 918.447373 357.462864 
z
" clip-path="url(#p216f1a87f9)" style="fill: #ffd700"/>
   </g>
   <g id="patch_40">
    <path d="M 975.494912 403.2 
L 1021.132944 403.2 
L 1021.132944 403.2 
L 975.494912 403.2 
z
" clip-path="url(#p216f1a87f9)" style="fill: #ffd700"/>
   </g>
   <g id="patch_41">
    <path d="M 1032.542452 403.2 
L 1078.180484 403.2 
L 1078.180484 403.2 
L 1032.542452 403.2 
z
" clip-path="url(#p216f1a87f9)" style="fill: #ffd700"/>
   </g>
   <g id="patch_42">
    <path d="M 1089.589992 403.2 
L 1135.228023 403.2 
L 1135.228023 403.2 
L 1089.589992 403.2 
z
" clip-path="url(#p216f1a87f9)" style="fill: #ffd700"/>
   </g>
   <g id="patch_43">
    <path d="M 1146.637531 370.868573 
L 1192.275563 370.868573 
L 1192.275563 370.868573 
L 1146.637531 370.868573 
z
" clip-path="url(#p216f1a87f9)" style="fill: #ffd700"/>
   </g>
   <g id="patch_44">
    <path d="M 1203.685071 195.527395 
L 1249.323103 195.527395 
L 1249.323103 195.527395 
L 1203.685071 195.527395 
z
" clip-path="url(#p216f1a87f9)" style="fill: #ffd700"/>
   </g>
   <g id="patch_45">
    <path d="M 1260.732611 319.309921 
L 1306.370642 319.309921 
L 1306.370642 319.309921 
L 1260.732611 319.309921 
z
" clip-path="url(#p216f1a87f9)" style="fill: #ffd700"/>
   </g>
   <g id="patch_46">
    <path d="M 1317.78015 308.571434 
L 1363.418182 308.571434 
L 1363.418182 308.571434 
L 1317.78015 308.571434 
z
" clip-path="url(#p216f1a87f9)" style="fill: #ffd700"/>
   </g>
   <g id="patch_47">
    <path d="M 119.781818 161.10858 
L 165.41985 161.10858 
L 165.41985 24.685737 
L 119.781818 24.685737 
z
" clip-path="url(#p216f1a87f9)" style="fill: #ff6347"/>
   </g>
   <g id="patch_48">
    <path d="M 176.829358 325.919999 
L 222.467389 325.919999 
L 222.467389 24.685726 
L 176.829358 24.685726 
z
" clip-path="url(#p216f1a87f9)" style="fill: #ff6347"/>
   </g>
   <g id="patch_49">
    <path d="M 233.876897 379.542859 
L 279.514929 379.542859 
L 279.514929 24.685737 
L 233.876897 24.685737 
z
" clip-path="url(#p216f1a87f9)" style="fill: #ff6347"/>
   </g>
   <g id="patch_50">
    <path d="M 290.924437 398.862858 
L 336.562469 398.862858 
L 336.562469 24.685761 
L 290.924437 24.685761 
z
" clip-path="url(#p216f1a87f9)" style="fill: #ff6347"/>
   </g>
   <g id="patch_51">
    <path d="M 347.971977 403.2 
L 393.610008 403.2 
L 393.610008 24.685737 
L 347.971977 24.685737 
z
" clip-path="url(#p216f1a87f9)" style="fill: #808080"/>
   </g>
   <g id="patch_52">
    <path d="M 405.019516 403.2 
L 450.657548 403.2 
L 450.657548 24.685737 
L 405.019516 24.685737 
z
" clip-path="url(#p216f1a87f9)" style="fill: #808080"/>
   </g>
   <g id="patch_53">
    <path d="M 462.067056 403.2 
L 507.705088 403.2 
L 507.705088 24.685737 
L 462.067056 24.685737 
z
" clip-path="url(#p216f1a87f9)" style="fill: #808080"/>
   </g>
   <g id="patch_54">
    <path d="M 519.114595 403.2 
L 564.752627 403.2 
L 564.752627 24.685737 
L 519.114595 24.685737 
z
" clip-path="url(#p216f1a87f9)" style="fill: #808080"/>
   </g>
   <g id="patch_55">
    <path d="M 576.162135 403.2 
L 621.800167 403.2 
L 621.800167 24.685737 
L 576.162135 24.685737 
z
" clip-path="url(#p216f1a87f9)" style="fill: #808080"/>
   </g>
   <g id="patch_56">
    <path d="M 633.209675 403.2 
L 678.847706 403.2 
L 678.847706 24.685737 
L 633.209675 24.685737 
z
" clip-path="url(#p216f1a87f9)" style="fill: #808080"/>
   </g>
   <g id="patch_57">
    <path d="M 690.257214 403.2 
L 735.895246 403.2 
L 735.895246 24.685737 
L 690.257214 24.685737 
z
" clip-path="url(#p216f1a87f9)" style="fill: #808080"/>
   </g>
   <g id="patch_58">
    <path d="M 747.304754 402.411429 
L 792.942786 402.411429 
L 792.942786 24.685725 
L 747.304754 24.685725 
z
" clip-path="url(#p216f1a87f9)" style="fill: #ff6347"/>
   </g>
   <g id="patch_59">
    <path d="M 804.352294 348 
L 849.990325 348 
L 849.990325 24.685748 
L 804.352294 24.685748 
z
" clip-path="url(#p216f1a87f9)" style="fill: #ff6347"/>
   </g>
   <g id="patch_60">
    <path d="M 861.399833 307.388573 
L 907.037865 307.388573 
L 907.037865 24.685714 
L 861.399833 24.685714 
z
" clip-path="url(#p216f1a87f9)" style="fill: #ff6347"/>
   </g>
   <g id="patch_61">
    <path d="M 918.447373 357.462864 
L 964.085405 357.462864 
L 964.085405 24.685765 
L 918.447373 24.685765 
z
" clip-path="url(#p216f1a87f9)" style="fill: #ff6347"/>
   </g>
   <g id="patch_62">
    <path d="M 975.494912 403.2 
L 1021.132944 403.2 
L 1021.132944 24.685737 
L 975.494912 24.685737 
z
" clip-path="url(#p216f1a87f9)" style="fill: #808080"/>
   </g>
   <g id="patch_63">
    <path d="M 1032.542452 403.2 
L 1078.180484 403.2 
L 1078.180484 24.685737 
L 1032.542452 24.685737 
z
" clip-path="url(#p216f1a87f9)" style="fill: #808080"/>
   </g>
   <g id="patch_64">
    <path d="M 1089.589992 403.2 
L 1135.228023 403.2 
L 1135.228023 24.685737 
L 1089.589992 24.685737 
z
" clip-path="url(#p216f1a87f9)" style="fill: #808080"/>
   </g>
   <g id="patch_65">
    <path d="M 1146.637531 370.868573 
L 1192.275563 370.868573 
L 1192.275563 24.68574 
L 1146.637531 24.68574 
z
" clip-path="url(#p216f1a87f9)" style="fill: #ff6347"/>
   </g>
   <g id="patch_66">
    <path d="M 1203.685071 195.527395 
L 1249.323103 195.527395 
L 1249.323103 24.685714 
L 1203.685071 24.685714 
z
" clip-path="url(#p216f1a87f9)" style="fill: #ff6347"/>
   </g>
   <g id="patch_67">
    <path d="M 1260.732611 319.309921 
L 1306.370642 319.309921 
L 1306.370642 24.68572 
L 1260.732611 24.68572 
z
" clip-path="url(#p216f1a87f9)" style="fill: #ff6347"/>
   </g>
   <g id="patch_68">
    <path d="M 1317.78015 308.571434 
L 1363.418182 308.571434 
L 1363.418182 24.685737 
L 1317.78015 24.685737 
z
" clip-path="url(#p216f1a87f9)" style="fill: #ff6347"/>
   </g>
   <g id="patch_69">
    <path d="M 119.781818 161.10858 
L 165.41985 161.10858 
L 165.41985 161.10858 
L 119.781818 161.10858 
z
" clip-path="url(#p216f1a87f9)" style="fill: #808080"/>
   </g>
   <g id="patch_70">
    <path d="M 176.829358 325.919999 
L 222.467389 325.919999 
L 222.467389 325.919999 
L 176.829358 325.919999 
z
" clip-path="url(#p216f1a87f9)" style="fill: #808080"/>
   </g>
   <g id="patch_71">
    <path d="M 233.876897 379.542859 
L 279.514929 379.542859 
L 279.514929 379.542859 
L 233.876897 379.542859 
z
" clip-path="url(#p216f1a87f9)" style="fill: #808080"/>
   </g>
   <g id="patch_72">
    <path d="M 290.924437 398.862858 
L 336.562469 398.862858 
L 336.562469 398.862858 
L 290.924437 398.862858 
z
" clip-path="url(#p216f1a87f9)" style="fill: #808080"/>
   </g>
   <g id="patch_73">
    <path d="M 347.971977 403.2 
L 393.610008 403.2 
L 393.610008 403.2 
L 347.971977 403.2 
z
" clip-path="url(#p216f1a87f9)" style="fill: #808080"/>
   </g>
   <g id="patch_74">
    <path d="M 405.019516 403.2 
L 450.657548 403.2 
L 450.657548 403.2 
L 405.019516 403.2 
z
" clip-path="url(#p216f1a87f9)" style="fill: #808080"/>
   </g>
   <g id="patch_75">
    <path d="M 462.067056 403.2 
L 507.705088 403.2 
L 507.705088 403.2 
L 462.067056 403.2 
z
" clip-path="url(#p216f1a87f9)" style="fill: #808080"/>
   </g>
   <g id="patch_76">
    <path d="M 519.114595 403.2 
L 564.752627 403.2 
L 564.752627 403.2 
L 519.114595 403.2 
z
" clip-path="url(#p216f1a87f9)" style="fill: #808080"/>
   </g>
   <g id="patch_77">
    <path d="M 576.162135 403.2 
L 621.800167 403.2 
L 621.800167 403.2 
L 576.162135 403.2 
z
" clip-path="url(#p216f1a87f9)" style="fill: #808080"/>
   </g>
   <g id="patch_78">
    <path d="M 633.209675 403.2 
L 678.847706 403.2 
L 678.847706 403.2 
L 633.209675 403.2 
z
" clip-path="url(#p216f1a87f9)" style="fill: #808080"/>
   </g>
   <g id="patch_79">
    <path d="M 690.257214 403.2 
L 735.895246 403.2 
L 735.895246 403.2 
L 690.257214 403.2 
z
" clip-path="url(#p216f1a87f9)" style="fill: #808080"/>
   </g>
   <g id="patch_80">
    <path d="M 747.304754 402.411429 
L 792.942786 402.411429 
L 792.942786 402.411429 
L 747.304754 402.411429 
z
" clip-path="url(#p216f1a87f9)" style="fill: #808080"/>
   </g>
   <g id="patch_81">
    <path d="M 804.352294 348 
L 849.990325 348 
L 849.990325 348 
L 804.352294 348 
z
" clip-path="url(#p216f1a87f9)" style="fill: #808080"/>
   </g>
   <g id="patch_82">
    <path d="M 861.399833 307.388573 
L 907.037865 307.388573 
L 907.037865 307.388573 
L 861.399833 307.388573 
z
" clip-path="url(#p216f1a87f9)" style="fill: #808080"/>
   </g>
   <g id="patch_83">
    <path d="M 918.447373 357.462864 
L 964.085405 357.462864 
L 964.085405 357.462864 
L 918.447373 357.462864 
z
" clip-path="url(#p216f1a87f9)" style="fill: #808080"/>
   </g>
   <g id="patch_84">
    <path d="M 975.494912 403.2 
L 1021.132944 403.2 
L 1021.132944 403.2 
L 975.494912 403.2 
z
" clip-path="url(#p216f1a87f9)" style="fill: #808080"/>
   </g>
   <g id="patch_85">
    <path d="M 1032.542452 403.2 
L 1078.180484 403.2 
L 1078.180484 403.2 
L 1032.542452 403.2 
z
" clip-path="url(#p216f1a87f9)" style="fill: #808080"/>
   </g>
   <g id="patch_86">
    <path d="M 1089.589992 403.2 
L 1135.228023 403.2 
L 1135.228023 403.2 
L 1089.589992 403.2 
z
" clip-path="url(#p216f1a87f9)" style="fill: #808080"/>
   </g>
   <g id="patch_87">
    <path d="M 1146.637531 370.868573 
L 1192.275563 370.868573 
L 1192.275563 370.868573 
L 1146.637531 370.868573 
z
" clip-path="url(#p216f1a87f9)" style="fill: #808080"/>
   </g>
   <g id="patch_88">
    <path d="M 1203.685071 195.527395 
L 1249.323103 195.527395 
L 1249.323103 195.527395 
L 1203.685071 195.527395 
z
" clip-path="url(#p216f1a87f9)" style="fill: #808080"/>
   </g>
   <g id="patch_89">
    <path d="M 1260.732611 319.309921 
L 1306.370642 319.309921 
L 1306.370642 319.309921 
L 1260.732611 319.309921 
z
" clip-path="url(#p216f1a87f9)" style="fill: #808080"/>
   </g>
   <g id="patch_90">
    <path d="M 1317.78015 308.571434 
L 1363.418182 308.571434 
L 1363.418182 308.571434 
L 1317.78015 308.571434 
z
" clip-path="url(#p216f1a87f9)" style="fill: #808080"/>
   </g>
   <g id="matplotlib.axis_1">
    <g id="xtick_1">
     <g id="line2d_1">
      <defs>
       <path id="m12c4acecec" d="M 0 0 
L 0 3.5 
" style="stroke: #000000; stroke-width: 0.8"/>
      </defs>
      <g>
       <use xlink:href="#m12c4acecec" x="142.600834" y="403.2" style="stroke: #000000; stroke-width: 0.8"/>
      </g>
     </g>
     <g id="text_1">
      <!-- Layers 1 to 5 -->
      <g transform="translate(56.725146 503.09991) rotate(-45) scale(0.18 -0.18)">
       <defs>
        <path id="DejaVuSans-4c" d="M 628 4666 
L 1259 4666 
L 1259 531 
L 3531 531 
L 3531 0 
L 628 0 
L 628 4666 
z
" transform="scale(0.015625)"/>
        <path id="DejaVuSans-61" d="M 2194 1759 
Q 1497 1759 1228 1600 
Q 959 1441 959 1056 
Q 959 750 1161 570 
Q 1363 391 1709 391 
Q 2188 391 2477 730 
Q 2766 1069 2766 1631 
L 2766 1759 
L 2194 1759 
z
M 3341 1997 
L 3341 0 
L 2766 0 
L 2766 531 
Q 2569 213 2275 61 
Q 1981 -91 1556 -91 
Q 1019 -91 701 211 
Q 384 513 384 1019 
Q 384 1609 779 1909 
Q 1175 2209 1959 2209 
L 2766 2209 
L 2766 2266 
Q 2766 2663 2505 2880 
Q 2244 3097 1772 3097 
Q 1472 3097 1187 3025 
Q 903 2953 641 2809 
L 641 3341 
Q 956 3463 1253 3523 
Q 1550 3584 1831 3584 
Q 2591 3584 2966 3190 
Q 3341 2797 3341 1997 
z
" transform="scale(0.015625)"/>
        <path id="DejaVuSans-79" d="M 2059 -325 
Q 1816 -950 1584 -1140 
Q 1353 -1331 966 -1331 
L 506 -1331 
L 506 -850 
L 844 -850 
Q 1081 -850 1212 -737 
Q 1344 -625 1503 -206 
L 1606 56 
L 191 3500 
L 800 3500 
L 1894 763 
L 2988 3500 
L 3597 3500 
L 2059 -325 
z
" transform="scale(0.015625)"/>
        <path id="DejaVuSans-65" d="M 3597 1894 
L 3597 1613 
L 953 1613 
Q 991 1019 1311 708 
Q 1631 397 2203 397 
Q 2534 397 2845 478 
Q 3156 559 3463 722 
L 3463 178 
Q 3153 47 2828 -22 
Q 2503 -91 2169 -91 
Q 1331 -91 842 396 
Q 353 884 353 1716 
Q 353 2575 817 3079 
Q 1281 3584 2069 3584 
Q 2775 3584 3186 3129 
Q 3597 2675 3597 1894 
z
M 3022 2063 
Q 3016 2534 2758 2815 
Q 2500 3097 2075 3097 
Q 1594 3097 1305 2825 
Q 1016 2553 972 2059 
L 3022 2063 
z
" transform="scale(0.015625)"/>
        <path id="DejaVuSans-72" d="M 2631 2963 
Q 2534 3019 2420 3045 
Q 2306 3072 2169 3072 
Q 1681 3072 1420 2755 
Q 1159 2438 1159 1844 
L 1159 0 
L 581 0 
L 581 3500 
L 1159 3500 
L 1159 2956 
Q 1341 3275 1631 3429 
Q 1922 3584 2338 3584 
Q 2397 3584 2469 3576 
Q 2541 3569 2628 3553 
L 2631 2963 
z
" transform="scale(0.015625)"/>
        <path id="DejaVuSans-73" d="M 2834 3397 
L 2834 2853 
Q 2591 2978 2328 3040 
Q 2066 3103 1784 3103 
Q 1356 3103 1142 2972 
Q 928 2841 928 2578 
Q 928 2378 1081 2264 
Q 1234 2150 1697 2047 
L 1894 2003 
Q 2506 1872 2764 1633 
Q 3022 1394 3022 966 
Q 3022 478 2636 193 
Q 2250 -91 1575 -91 
Q 1294 -91 989 -36 
Q 684 19 347 128 
L 347 722 
Q 666 556 975 473 
Q 1284 391 1588 391 
Q 1994 391 2212 530 
Q 2431 669 2431 922 
Q 2431 1156 2273 1281 
Q 2116 1406 1581 1522 
L 1381 1569 
Q 847 1681 609 1914 
Q 372 2147 372 2553 
Q 372 3047 722 3315 
Q 1072 3584 1716 3584 
Q 2034 3584 2315 3537 
Q 2597 3491 2834 3397 
z
" transform="scale(0.015625)"/>
        <path id="DejaVuSans-20" transform="scale(0.015625)"/>
        <path id="DejaVuSans-31" d="M 794 531 
L 1825 531 
L 1825 4091 
L 703 3866 
L 703 4441 
L 1819 4666 
L 2450 4666 
L 2450 531 
L 3481 531 
L 3481 0 
L 794 0 
L 794 531 
z
" transform="scale(0.015625)"/>
        <path id="DejaVuSans-74" d="M 1172 4494 
L 1172 3500 
L 2356 3500 
L 2356 3053 
L 1172 3053 
L 1172 1153 
Q 1172 725 1289 603 
Q 1406 481 1766 481 
L 2356 481 
L 2356 0 
L 1766 0 
Q 1100 0 847 248 
Q 594 497 594 1153 
L 594 3053 
L 172 3053 
L 172 3500 
L 594 3500 
L 594 4494 
L 1172 4494 
z
" transform="scale(0.015625)"/>
        <path id="DejaVuSans-6f" d="M 1959 3097 
Q 1497 3097 1228 2736 
Q 959 2375 959 1747 
Q 959 1119 1226 758 
Q 1494 397 1959 397 
Q 2419 397 2687 759 
Q 2956 1122 2956 1747 
Q 2956 2369 2687 2733 
Q 2419 3097 1959 3097 
z
M 1959 3584 
Q 2709 3584 3137 3096 
Q 3566 2609 3566 1747 
Q 3566 888 3137 398 
Q 2709 -91 1959 -91 
Q 1206 -91 779 398 
Q 353 888 353 1747 
Q 353 2609 779 3096 
Q 1206 3584 1959 3584 
z
" transform="scale(0.015625)"/>
        <path id="DejaVuSans-35" d="M 691 4666 
L 3169 4666 
L 3169 4134 
L 1269 4134 
L 1269 2991 
Q 1406 3038 1543 3061 
Q 1681 3084 1819 3084 
Q 2600 3084 3056 2656 
Q 3513 2228 3513 1497 
Q 3513 744 3044 326 
Q 2575 -91 1722 -91 
Q 1428 -91 1123 -41 
Q 819 9 494 109 
L 494 744 
Q 775 591 1075 516 
Q 1375 441 1709 441 
Q 2250 441 2565 725 
Q 2881 1009 2881 1497 
Q 2881 1984 2565 2268 
Q 2250 2553 1709 2553 
Q 1456 2553 1204 2497 
Q 953 2441 691 2322 
L 691 4666 
z
" transform="scale(0.015625)"/>
       </defs>
       <use xlink:href="#DejaVuSans-4c"/>
       <use xlink:href="#DejaVuSans-61" x="55.712891"/>
       <use xlink:href="#DejaVuSans-79" x="116.992188"/>
       <use xlink:href="#DejaVuSans-65" x="176.171875"/>
       <use xlink:href="#DejaVuSans-72" x="237.695312"/>
       <use xlink:href="#DejaVuSans-73" x="278.808594"/>
       <use xlink:href="#DejaVuSans-20" x="330.908203"/>
       <use xlink:href="#DejaVuSans-31" x="362.695312"/>
       <use xlink:href="#DejaVuSans-20" x="426.318359"/>
       <use xlink:href="#DejaVuSans-74" x="458.105469"/>
       <use xlink:href="#DejaVuSans-6f" x="497.314453"/>
       <use xlink:href="#DejaVuSans-20" x="558.496094"/>
       <use xlink:href="#DejaVuSans-35" x="590.283203"/>
      </g>
     </g>
    </g>
    <g id="xtick_2">
     <g id="line2d_2">
      <g>
       <use xlink:href="#m12c4acecec" x="199.648374" y="403.2" style="stroke: #000000; stroke-width: 0.8"/>
      </g>
     </g>
     <g id="text_2">
      <!-- Layers 6 to 10 -->
      <g transform="translate(105.674545 511.19805) rotate(-45) scale(0.18 -0.18)">
       <defs>
        <path id="DejaVuSans-36" d="M 2113 2584 
Q 1688 2584 1439 2293 
Q 1191 2003 1191 1497 
Q 1191 994 1439 701 
Q 1688 409 2113 409 
Q 2538 409 2786 701 
Q 3034 994 3034 1497 
Q 3034 2003 2786 2293 
Q 2538 2584 2113 2584 
z
M 3366 4563 
L 3366 3988 
Q 3128 4100 2886 4159 
Q 2644 4219 2406 4219 
Q 1781 4219 1451 3797 
Q 1122 3375 1075 2522 
Q 1259 2794 1537 2939 
Q 1816 3084 2150 3084 
Q 2853 3084 3261 2657 
Q 3669 2231 3669 1497 
Q 3669 778 3244 343 
Q 2819 -91 2113 -91 
Q 1303 -91 875 529 
Q 447 1150 447 2328 
Q 447 3434 972 4092 
Q 1497 4750 2381 4750 
Q 2619 4750 2861 4703 
Q 3103 4656 3366 4563 
z
" transform="scale(0.015625)"/>
        <path id="DejaVuSans-30" d="M 2034 4250 
Q 1547 4250 1301 3770 
Q 1056 3291 1056 2328 
Q 1056 1369 1301 889 
Q 1547 409 2034 409 
Q 2525 409 2770 889 
Q 3016 1369 3016 2328 
Q 3016 3291 2770 3770 
Q 2525 4250 2034 4250 
z
M 2034 4750 
Q 2819 4750 3233 4129 
Q 3647 3509 3647 2328 
Q 3647 1150 3233 529 
Q 2819 -91 2034 -91 
Q 1250 -91 836 529 
Q 422 1150 422 2328 
Q 422 3509 836 4129 
Q 1250 4750 2034 4750 
z
" transform="scale(0.015625)"/>
       </defs>
       <use xlink:href="#DejaVuSans-4c"/>
       <use xlink:href="#DejaVuSans-61" x="55.712891"/>
       <use xlink:href="#DejaVuSans-79" x="116.992188"/>
       <use xlink:href="#DejaVuSans-65" x="176.171875"/>
       <use xlink:href="#DejaVuSans-72" x="237.695312"/>
       <use xlink:href="#DejaVuSans-73" x="278.808594"/>
       <use xlink:href="#DejaVuSans-20" x="330.908203"/>
       <use xlink:href="#DejaVuSans-36" x="362.695312"/>
       <use xlink:href="#DejaVuSans-20" x="426.318359"/>
       <use xlink:href="#DejaVuSans-74" x="458.105469"/>
       <use xlink:href="#DejaVuSans-6f" x="497.314453"/>
       <use xlink:href="#DejaVuSans-20" x="558.496094"/>
       <use xlink:href="#DejaVuSans-31" x="590.283203"/>
       <use xlink:href="#DejaVuSans-30" x="653.90625"/>
      </g>
     </g>
    </g>
    <g id="xtick_3">
     <g id="line2d_3">
      <g>
       <use xlink:href="#m12c4acecec" x="256.695913" y="403.2" style="stroke: #000000; stroke-width: 0.8"/>
      </g>
     </g>
     <g id="text_3">
      <!-- Layers 11 to 15 -->
      <g transform="translate(154.623945 519.296191) rotate(-45) scale(0.18 -0.18)">
       <use xlink:href="#DejaVuSans-4c"/>
       <use xlink:href="#DejaVuSans-61" x="55.712891"/>
       <use xlink:href="#DejaVuSans-79" x="116.992188"/>
       <use xlink:href="#DejaVuSans-65" x="176.171875"/>
       <use xlink:href="#DejaVuSans-72" x="237.695312"/>
       <use xlink:href="#DejaVuSans-73" x="278.808594"/>
       <use xlink:href="#DejaVuSans-20" x="330.908203"/>
       <use xlink:href="#DejaVuSans-31" x="362.695312"/>
       <use xlink:href="#DejaVuSans-31" x="426.318359"/>
       <use xlink:href="#DejaVuSans-20" x="489.941406"/>
       <use xlink:href="#DejaVuSans-74" x="521.728516"/>
       <use xlink:href="#DejaVuSans-6f" x="560.9375"/>
       <use xlink:href="#DejaVuSans-20" x="622.119141"/>
       <use xlink:href="#DejaVuSans-31" x="653.90625"/>
       <use xlink:href="#DejaVuSans-35" x="717.529297"/>
      </g>
     </g>
    </g>
    <g id="xtick_4">
     <g id="line2d_4">
      <g>
       <use xlink:href="#m12c4acecec" x="313.743453" y="403.2" style="stroke: #000000; stroke-width: 0.8"/>
      </g>
     </g>
     <g id="text_4">
      <!-- Layers 16 to 20 -->
      <g transform="translate(211.671484 519.296191) rotate(-45) scale(0.18 -0.18)">
       <defs>
        <path id="DejaVuSans-32" d="M 1228 531 
L 3431 531 
L 3431 0 
L 469 0 
L 469 531 
Q 828 903 1448 1529 
Q 2069 2156 2228 2338 
Q 2531 2678 2651 2914 
Q 2772 3150 2772 3378 
Q 2772 3750 2511 3984 
Q 2250 4219 1831 4219 
Q 1534 4219 1204 4116 
Q 875 4013 500 3803 
L 500 4441 
Q 881 4594 1212 4672 
Q 1544 4750 1819 4750 
Q 2544 4750 2975 4387 
Q 3406 4025 3406 3419 
Q 3406 3131 3298 2873 
Q 3191 2616 2906 2266 
Q 2828 2175 2409 1742 
Q 1991 1309 1228 531 
z
" transform="scale(0.015625)"/>
       </defs>
       <use xlink:href="#DejaVuSans-4c"/>
       <use xlink:href="#DejaVuSans-61" x="55.712891"/>
       <use xlink:href="#DejaVuSans-79" x="116.992188"/>
       <use xlink:href="#DejaVuSans-65" x="176.171875"/>
       <use xlink:href="#DejaVuSans-72" x="237.695312"/>
       <use xlink:href="#DejaVuSans-73" x="278.808594"/>
       <use xlink:href="#DejaVuSans-20" x="330.908203"/>
       <use xlink:href="#DejaVuSans-31" x="362.695312"/>
       <use xlink:href="#DejaVuSans-36" x="426.318359"/>
       <use xlink:href="#DejaVuSans-20" x="489.941406"/>
       <use xlink:href="#DejaVuSans-74" x="521.728516"/>
       <use xlink:href="#DejaVuSans-6f" x="560.9375"/>
       <use xlink:href="#DejaVuSans-20" x="622.119141"/>
       <use xlink:href="#DejaVuSans-32" x="653.90625"/>
       <use xlink:href="#DejaVuSans-30" x="717.529297"/>
      </g>
     </g>
    </g>
    <g id="xtick_5">
     <g id="line2d_5">
      <g>
       <use xlink:href="#m12c4acecec" x="370.790992" y="403.2" style="stroke: #000000; stroke-width: 0.8"/>
      </g>
     </g>
     <g id="text_5">
      <!-- Layers 21 to 25 -->
      <g transform="translate(268.719024 519.296191) rotate(-45) scale(0.18 -0.18)">
       <use xlink:href="#DejaVuSans-4c"/>
       <use xlink:href="#DejaVuSans-61" x="55.712891"/>
       <use xlink:href="#DejaVuSans-79" x="116.992188"/>
       <use xlink:href="#DejaVuSans-65" x="176.171875"/>
       <use xlink:href="#DejaVuSans-72" x="237.695312"/>
       <use xlink:href="#DejaVuSans-73" x="278.808594"/>
       <use xlink:href="#DejaVuSans-20" x="330.908203"/>
       <use xlink:href="#DejaVuSans-32" x="362.695312"/>
       <use xlink:href="#DejaVuSans-31" x="426.318359"/>
       <use xlink:href="#DejaVuSans-20" x="489.941406"/>
       <use xlink:href="#DejaVuSans-74" x="521.728516"/>
       <use xlink:href="#DejaVuSans-6f" x="560.9375"/>
       <use xlink:href="#DejaVuSans-20" x="622.119141"/>
       <use xlink:href="#DejaVuSans-32" x="653.90625"/>
       <use xlink:href="#DejaVuSans-35" x="717.529297"/>
      </g>
     </g>
    </g>
    <g id="xtick_6">
     <g id="line2d_6">
      <g>
       <use xlink:href="#m12c4acecec" x="427.838532" y="403.2" style="stroke: #000000; stroke-width: 0.8"/>
      </g>
     </g>
     <g id="text_6">
      <!-- Layers 26 to 30 -->
      <g transform="translate(325.766563 519.296191) rotate(-45) scale(0.18 -0.18)">
       <defs>
        <path id="DejaVuSans-33" d="M 2597 2516 
Q 3050 2419 3304 2112 
Q 3559 1806 3559 1356 
Q 3559 666 3084 287 
Q 2609 -91 1734 -91 
Q 1441 -91 1130 -33 
Q 819 25 488 141 
L 488 750 
Q 750 597 1062 519 
Q 1375 441 1716 441 
Q 2309 441 2620 675 
Q 2931 909 2931 1356 
Q 2931 1769 2642 2001 
Q 2353 2234 1838 2234 
L 1294 2234 
L 1294 2753 
L 1863 2753 
Q 2328 2753 2575 2939 
Q 2822 3125 2822 3475 
Q 2822 3834 2567 4026 
Q 2313 4219 1838 4219 
Q 1578 4219 1281 4162 
Q 984 4106 628 3988 
L 628 4550 
Q 988 4650 1302 4700 
Q 1616 4750 1894 4750 
Q 2613 4750 3031 4423 
Q 3450 4097 3450 3541 
Q 3450 3153 3228 2886 
Q 3006 2619 2597 2516 
z
" transform="scale(0.015625)"/>
       </defs>
       <use xlink:href="#DejaVuSans-4c"/>
       <use xlink:href="#DejaVuSans-61" x="55.712891"/>
       <use xlink:href="#DejaVuSans-79" x="116.992188"/>
       <use xlink:href="#DejaVuSans-65" x="176.171875"/>
       <use xlink:href="#DejaVuSans-72" x="237.695312"/>
       <use xlink:href="#DejaVuSans-73" x="278.808594"/>
       <use xlink:href="#DejaVuSans-20" x="330.908203"/>
       <use xlink:href="#DejaVuSans-32" x="362.695312"/>
       <use xlink:href="#DejaVuSans-36" x="426.318359"/>
       <use xlink:href="#DejaVuSans-20" x="489.941406"/>
       <use xlink:href="#DejaVuSans-74" x="521.728516"/>
       <use xlink:href="#DejaVuSans-6f" x="560.9375"/>
       <use xlink:href="#DejaVuSans-20" x="622.119141"/>
       <use xlink:href="#DejaVuSans-33" x="653.90625"/>
       <use xlink:href="#DejaVuSans-30" x="717.529297"/>
      </g>
     </g>
    </g>
    <g id="xtick_7">
     <g id="line2d_7">
      <g>
       <use xlink:href="#m12c4acecec" x="484.886072" y="403.2" style="stroke: #000000; stroke-width: 0.8"/>
      </g>
     </g>
     <g id="text_7">
      <!-- Layers 31 to 35 -->
      <g transform="translate(382.814103 519.296191) rotate(-45) scale(0.18 -0.18)">
       <use xlink:href="#DejaVuSans-4c"/>
       <use xlink:href="#DejaVuSans-61" x="55.712891"/>
       <use xlink:href="#DejaVuSans-79" x="116.992188"/>
       <use xlink:href="#DejaVuSans-65" x="176.171875"/>
       <use xlink:href="#DejaVuSans-72" x="237.695312"/>
       <use xlink:href="#DejaVuSans-73" x="278.808594"/>
       <use xlink:href="#DejaVuSans-20" x="330.908203"/>
       <use xlink:href="#DejaVuSans-33" x="362.695312"/>
       <use xlink:href="#DejaVuSans-31" x="426.318359"/>
       <use xlink:href="#DejaVuSans-20" x="489.941406"/>
       <use xlink:href="#DejaVuSans-74" x="521.728516"/>
       <use xlink:href="#DejaVuSans-6f" x="560.9375"/>
       <use xlink:href="#DejaVuSans-20" x="622.119141"/>
       <use xlink:href="#DejaVuSans-33" x="653.90625"/>
       <use xlink:href="#DejaVuSans-35" x="717.529297"/>
      </g>
     </g>
    </g>
    <g id="xtick_8">
     <g id="line2d_8">
      <g>
       <use xlink:href="#m12c4acecec" x="541.933611" y="403.2" style="stroke: #000000; stroke-width: 0.8"/>
      </g>
     </g>
     <g id="text_8">
      <!-- Layers 36 to 40 -->
      <g transform="translate(439.861643 519.296191) rotate(-45) scale(0.18 -0.18)">
       <defs>
        <path id="DejaVuSans-34" d="M 2419 4116 
L 825 1625 
L 2419 1625 
L 2419 4116 
z
M 2253 4666 
L 3047 4666 
L 3047 1625 
L 3713 1625 
L 3713 1100 
L 3047 1100 
L 3047 0 
L 2419 0 
L 2419 1100 
L 313 1100 
L 313 1709 
L 2253 4666 
z
" transform="scale(0.015625)"/>
       </defs>
       <use xlink:href="#DejaVuSans-4c"/>
       <use xlink:href="#DejaVuSans-61" x="55.712891"/>
       <use xlink:href="#DejaVuSans-79" x="116.992188"/>
       <use xlink:href="#DejaVuSans-65" x="176.171875"/>
       <use xlink:href="#DejaVuSans-72" x="237.695312"/>
       <use xlink:href="#DejaVuSans-73" x="278.808594"/>
       <use xlink:href="#DejaVuSans-20" x="330.908203"/>
       <use xlink:href="#DejaVuSans-33" x="362.695312"/>
       <use xlink:href="#DejaVuSans-36" x="426.318359"/>
       <use xlink:href="#DejaVuSans-20" x="489.941406"/>
       <use xlink:href="#DejaVuSans-74" x="521.728516"/>
       <use xlink:href="#DejaVuSans-6f" x="560.9375"/>
       <use xlink:href="#DejaVuSans-20" x="622.119141"/>
       <use xlink:href="#DejaVuSans-34" x="653.90625"/>
       <use xlink:href="#DejaVuSans-30" x="717.529297"/>
      </g>
     </g>
    </g>
    <g id="xtick_9">
     <g id="line2d_9">
      <g>
       <use xlink:href="#m12c4acecec" x="598.981151" y="403.2" style="stroke: #000000; stroke-width: 0.8"/>
      </g>
     </g>
     <g id="text_9">
      <!-- Layers 41 to 45 -->
      <g transform="translate(496.909182 519.296191) rotate(-45) scale(0.18 -0.18)">
       <use xlink:href="#DejaVuSans-4c"/>
       <use xlink:href="#DejaVuSans-61" x="55.712891"/>
       <use xlink:href="#DejaVuSans-79" x="116.992188"/>
       <use xlink:href="#DejaVuSans-65" x="176.171875"/>
       <use xlink:href="#DejaVuSans-72" x="237.695312"/>
       <use xlink:href="#DejaVuSans-73" x="278.808594"/>
       <use xlink:href="#DejaVuSans-20" x="330.908203"/>
       <use xlink:href="#DejaVuSans-34" x="362.695312"/>
       <use xlink:href="#DejaVuSans-31" x="426.318359"/>
       <use xlink:href="#DejaVuSans-20" x="489.941406"/>
       <use xlink:href="#DejaVuSans-74" x="521.728516"/>
       <use xlink:href="#DejaVuSans-6f" x="560.9375"/>
       <use xlink:href="#DejaVuSans-20" x="622.119141"/>
       <use xlink:href="#DejaVuSans-34" x="653.90625"/>
       <use xlink:href="#DejaVuSans-35" x="717.529297"/>
      </g>
     </g>
    </g>
    <g id="xtick_10">
     <g id="line2d_10">
      <g>
       <use xlink:href="#m12c4acecec" x="656.028691" y="403.2" style="stroke: #000000; stroke-width: 0.8"/>
      </g>
     </g>
     <g id="text_10">
      <!-- Layers 46 to 50 -->
      <g transform="translate(553.956722 519.296191) rotate(-45) scale(0.18 -0.18)">
       <use xlink:href="#DejaVuSans-4c"/>
       <use xlink:href="#DejaVuSans-61" x="55.712891"/>
       <use xlink:href="#DejaVuSans-79" x="116.992188"/>
       <use xlink:href="#DejaVuSans-65" x="176.171875"/>
       <use xlink:href="#DejaVuSans-72" x="237.695312"/>
       <use xlink:href="#DejaVuSans-73" x="278.808594"/>
       <use xlink:href="#DejaVuSans-20" x="330.908203"/>
       <use xlink:href="#DejaVuSans-34" x="362.695312"/>
       <use xlink:href="#DejaVuSans-36" x="426.318359"/>
       <use xlink:href="#DejaVuSans-20" x="489.941406"/>
       <use xlink:href="#DejaVuSans-74" x="521.728516"/>
       <use xlink:href="#DejaVuSans-6f" x="560.9375"/>
       <use xlink:href="#DejaVuSans-20" x="622.119141"/>
       <use xlink:href="#DejaVuSans-35" x="653.90625"/>
       <use xlink:href="#DejaVuSans-30" x="717.529297"/>
      </g>
     </g>
    </g>
    <g id="xtick_11">
     <g id="line2d_11">
      <g>
       <use xlink:href="#m12c4acecec" x="713.07623" y="403.2" style="stroke: #000000; stroke-width: 0.8"/>
      </g>
     </g>
     <g id="text_11">
      <!-- Layers 51 to 55 -->
      <g transform="translate(611.004261 519.296191) rotate(-45) scale(0.18 -0.18)">
       <use xlink:href="#DejaVuSans-4c"/>
       <use xlink:href="#DejaVuSans-61" x="55.712891"/>
       <use xlink:href="#DejaVuSans-79" x="116.992188"/>
       <use xlink:href="#DejaVuSans-65" x="176.171875"/>
       <use xlink:href="#DejaVuSans-72" x="237.695312"/>
       <use xlink:href="#DejaVuSans-73" x="278.808594"/>
       <use xlink:href="#DejaVuSans-20" x="330.908203"/>
       <use xlink:href="#DejaVuSans-35" x="362.695312"/>
       <use xlink:href="#DejaVuSans-31" x="426.318359"/>
       <use xlink:href="#DejaVuSans-20" x="489.941406"/>
       <use xlink:href="#DejaVuSans-74" x="521.728516"/>
       <use xlink:href="#DejaVuSans-6f" x="560.9375"/>
       <use xlink:href="#DejaVuSans-20" x="622.119141"/>
       <use xlink:href="#DejaVuSans-35" x="653.90625"/>
       <use xlink:href="#DejaVuSans-35" x="717.529297"/>
      </g>
     </g>
    </g>
    <g id="xtick_12">
     <g id="line2d_12">
      <g>
       <use xlink:href="#m12c4acecec" x="770.12377" y="403.2" style="stroke: #000000; stroke-width: 0.8"/>
      </g>
     </g>
     <g id="text_12">
      <!-- Layers 56 to 60 -->
      <g transform="translate(668.051801 519.296191) rotate(-45) scale(0.18 -0.18)">
       <use xlink:href="#DejaVuSans-4c"/>
       <use xlink:href="#DejaVuSans-61" x="55.712891"/>
       <use xlink:href="#DejaVuSans-79" x="116.992188"/>
       <use xlink:href="#DejaVuSans-65" x="176.171875"/>
       <use xlink:href="#DejaVuSans-72" x="237.695312"/>
       <use xlink:href="#DejaVuSans-73" x="278.808594"/>
       <use xlink:href="#DejaVuSans-20" x="330.908203"/>
       <use xlink:href="#DejaVuSans-35" x="362.695312"/>
       <use xlink:href="#DejaVuSans-36" x="426.318359"/>
       <use xlink:href="#DejaVuSans-20" x="489.941406"/>
       <use xlink:href="#DejaVuSans-74" x="521.728516"/>
       <use xlink:href="#DejaVuSans-6f" x="560.9375"/>
       <use xlink:href="#DejaVuSans-20" x="622.119141"/>
       <use xlink:href="#DejaVuSans-36" x="653.90625"/>
       <use xlink:href="#DejaVuSans-30" x="717.529297"/>
      </g>
     </g>
    </g>
    <g id="xtick_13">
     <g id="line2d_13">
      <g>
       <use xlink:href="#m12c4acecec" x="827.171309" y="403.2" style="stroke: #000000; stroke-width: 0.8"/>
      </g>
     </g>
     <g id="text_13">
      <!-- Layers 61 to 65 -->
      <g transform="translate(725.099341 519.296191) rotate(-45) scale(0.18 -0.18)">
       <use xlink:href="#DejaVuSans-4c"/>
       <use xlink:href="#DejaVuSans-61" x="55.712891"/>
       <use xlink:href="#DejaVuSans-79" x="116.992188"/>
       <use xlink:href="#DejaVuSans-65" x="176.171875"/>
       <use xlink:href="#DejaVuSans-72" x="237.695312"/>
       <use xlink:href="#DejaVuSans-73" x="278.808594"/>
       <use xlink:href="#DejaVuSans-20" x="330.908203"/>
       <use xlink:href="#DejaVuSans-36" x="362.695312"/>
       <use xlink:href="#DejaVuSans-31" x="426.318359"/>
       <use xlink:href="#DejaVuSans-20" x="489.941406"/>
       <use xlink:href="#DejaVuSans-74" x="521.728516"/>
       <use xlink:href="#DejaVuSans-6f" x="560.9375"/>
       <use xlink:href="#DejaVuSans-20" x="622.119141"/>
       <use xlink:href="#DejaVuSans-36" x="653.90625"/>
       <use xlink:href="#DejaVuSans-35" x="717.529297"/>
      </g>
     </g>
    </g>
    <g id="xtick_14">
     <g id="line2d_14">
      <g>
       <use xlink:href="#m12c4acecec" x="884.218849" y="403.2" style="stroke: #000000; stroke-width: 0.8"/>
      </g>
     </g>
     <g id="text_14">
      <!-- Layers 66 to 70 -->
      <g transform="translate(782.14688 519.296191) rotate(-45) scale(0.18 -0.18)">
       <defs>
        <path id="DejaVuSans-37" d="M 525 4666 
L 3525 4666 
L 3525 4397 
L 1831 0 
L 1172 0 
L 2766 4134 
L 525 4134 
L 525 4666 
z
" transform="scale(0.015625)"/>
       </defs>
       <use xlink:href="#DejaVuSans-4c"/>
       <use xlink:href="#DejaVuSans-61" x="55.712891"/>
       <use xlink:href="#DejaVuSans-79" x="116.992188"/>
       <use xlink:href="#DejaVuSans-65" x="176.171875"/>
       <use xlink:href="#DejaVuSans-72" x="237.695312"/>
       <use xlink:href="#DejaVuSans-73" x="278.808594"/>
       <use xlink:href="#DejaVuSans-20" x="330.908203"/>
       <use xlink:href="#DejaVuSans-36" x="362.695312"/>
       <use xlink:href="#DejaVuSans-36" x="426.318359"/>
       <use xlink:href="#DejaVuSans-20" x="489.941406"/>
       <use xlink:href="#DejaVuSans-74" x="521.728516"/>
       <use xlink:href="#DejaVuSans-6f" x="560.9375"/>
       <use xlink:href="#DejaVuSans-20" x="622.119141"/>
       <use xlink:href="#DejaVuSans-37" x="653.90625"/>
       <use xlink:href="#DejaVuSans-30" x="717.529297"/>
      </g>
     </g>
    </g>
    <g id="xtick_15">
     <g id="line2d_15">
      <g>
       <use xlink:href="#m12c4acecec" x="941.266389" y="403.2" style="stroke: #000000; stroke-width: 0.8"/>
      </g>
     </g>
     <g id="text_15">
      <!-- Layers 71 to 75 -->
      <g transform="translate(839.19442 519.296191) rotate(-45) scale(0.18 -0.18)">
       <use xlink:href="#DejaVuSans-4c"/>
       <use xlink:href="#DejaVuSans-61" x="55.712891"/>
       <use xlink:href="#DejaVuSans-79" x="116.992188"/>
       <use xlink:href="#DejaVuSans-65" x="176.171875"/>
       <use xlink:href="#DejaVuSans-72" x="237.695312"/>
       <use xlink:href="#DejaVuSans-73" x="278.808594"/>
       <use xlink:href="#DejaVuSans-20" x="330.908203"/>
       <use xlink:href="#DejaVuSans-37" x="362.695312"/>
       <use xlink:href="#DejaVuSans-31" x="426.318359"/>
       <use xlink:href="#DejaVuSans-20" x="489.941406"/>
       <use xlink:href="#DejaVuSans-74" x="521.728516"/>
       <use xlink:href="#DejaVuSans-6f" x="560.9375"/>
       <use xlink:href="#DejaVuSans-20" x="622.119141"/>
       <use xlink:href="#DejaVuSans-37" x="653.90625"/>
       <use xlink:href="#DejaVuSans-35" x="717.529297"/>
      </g>
     </g>
    </g>
    <g id="xtick_16">
     <g id="line2d_16">
      <g>
       <use xlink:href="#m12c4acecec" x="998.313928" y="403.2" style="stroke: #000000; stroke-width: 0.8"/>
      </g>
     </g>
     <g id="text_16">
      <!-- Layers 76 to 80 -->
      <g transform="translate(896.24196 519.296191) rotate(-45) scale(0.18 -0.18)">
       <defs>
        <path id="DejaVuSans-38" d="M 2034 2216 
Q 1584 2216 1326 1975 
Q 1069 1734 1069 1313 
Q 1069 891 1326 650 
Q 1584 409 2034 409 
Q 2484 409 2743 651 
Q 3003 894 3003 1313 
Q 3003 1734 2745 1975 
Q 2488 2216 2034 2216 
z
M 1403 2484 
Q 997 2584 770 2862 
Q 544 3141 544 3541 
Q 544 4100 942 4425 
Q 1341 4750 2034 4750 
Q 2731 4750 3128 4425 
Q 3525 4100 3525 3541 
Q 3525 3141 3298 2862 
Q 3072 2584 2669 2484 
Q 3125 2378 3379 2068 
Q 3634 1759 3634 1313 
Q 3634 634 3220 271 
Q 2806 -91 2034 -91 
Q 1263 -91 848 271 
Q 434 634 434 1313 
Q 434 1759 690 2068 
Q 947 2378 1403 2484 
z
M 1172 3481 
Q 1172 3119 1398 2916 
Q 1625 2713 2034 2713 
Q 2441 2713 2670 2916 
Q 2900 3119 2900 3481 
Q 2900 3844 2670 4047 
Q 2441 4250 2034 4250 
Q 1625 4250 1398 4047 
Q 1172 3844 1172 3481 
z
" transform="scale(0.015625)"/>
       </defs>
       <use xlink:href="#DejaVuSans-4c"/>
       <use xlink:href="#DejaVuSans-61" x="55.712891"/>
       <use xlink:href="#DejaVuSans-79" x="116.992188"/>
       <use xlink:href="#DejaVuSans-65" x="176.171875"/>
       <use xlink:href="#DejaVuSans-72" x="237.695312"/>
       <use xlink:href="#DejaVuSans-73" x="278.808594"/>
       <use xlink:href="#DejaVuSans-20" x="330.908203"/>
       <use xlink:href="#DejaVuSans-37" x="362.695312"/>
       <use xlink:href="#DejaVuSans-36" x="426.318359"/>
       <use xlink:href="#DejaVuSans-20" x="489.941406"/>
       <use xlink:href="#DejaVuSans-74" x="521.728516"/>
       <use xlink:href="#DejaVuSans-6f" x="560.9375"/>
       <use xlink:href="#DejaVuSans-20" x="622.119141"/>
       <use xlink:href="#DejaVuSans-38" x="653.90625"/>
       <use xlink:href="#DejaVuSans-30" x="717.529297"/>
      </g>
     </g>
    </g>
    <g id="xtick_17">
     <g id="line2d_17">
      <g>
       <use xlink:href="#m12c4acecec" x="1055.361468" y="403.2" style="stroke: #000000; stroke-width: 0.8"/>
      </g>
     </g>
     <g id="text_17">
      <!-- Layers 81 to 85 -->
      <g transform="translate(953.289499 519.296191) rotate(-45) scale(0.18 -0.18)">
       <use xlink:href="#DejaVuSans-4c"/>
       <use xlink:href="#DejaVuSans-61" x="55.712891"/>
       <use xlink:href="#DejaVuSans-79" x="116.992188"/>
       <use xlink:href="#DejaVuSans-65" x="176.171875"/>
       <use xlink:href="#DejaVuSans-72" x="237.695312"/>
       <use xlink:href="#DejaVuSans-73" x="278.808594"/>
       <use xlink:href="#DejaVuSans-20" x="330.908203"/>
       <use xlink:href="#DejaVuSans-38" x="362.695312"/>
       <use xlink:href="#DejaVuSans-31" x="426.318359"/>
       <use xlink:href="#DejaVuSans-20" x="489.941406"/>
       <use xlink:href="#DejaVuSans-74" x="521.728516"/>
       <use xlink:href="#DejaVuSans-6f" x="560.9375"/>
       <use xlink:href="#DejaVuSans-20" x="622.119141"/>
       <use xlink:href="#DejaVuSans-38" x="653.90625"/>
       <use xlink:href="#DejaVuSans-35" x="717.529297"/>
      </g>
     </g>
    </g>
    <g id="xtick_18">
     <g id="line2d_18">
      <g>
       <use xlink:href="#m12c4acecec" x="1112.409008" y="403.2" style="stroke: #000000; stroke-width: 0.8"/>
      </g>
     </g>
     <g id="text_18">
      <!-- Layers 86 to 90 -->
      <g transform="translate(1010.337039 519.296191) rotate(-45) scale(0.18 -0.18)">
       <defs>
        <path id="DejaVuSans-39" d="M 703 97 
L 703 672 
Q 941 559 1184 500 
Q 1428 441 1663 441 
Q 2288 441 2617 861 
Q 2947 1281 2994 2138 
Q 2813 1869 2534 1725 
Q 2256 1581 1919 1581 
Q 1219 1581 811 2004 
Q 403 2428 403 3163 
Q 403 3881 828 4315 
Q 1253 4750 1959 4750 
Q 2769 4750 3195 4129 
Q 3622 3509 3622 2328 
Q 3622 1225 3098 567 
Q 2575 -91 1691 -91 
Q 1453 -91 1209 -44 
Q 966 3 703 97 
z
M 1959 2075 
Q 2384 2075 2632 2365 
Q 2881 2656 2881 3163 
Q 2881 3666 2632 3958 
Q 2384 4250 1959 4250 
Q 1534 4250 1286 3958 
Q 1038 3666 1038 3163 
Q 1038 2656 1286 2365 
Q 1534 2075 1959 2075 
z
" transform="scale(0.015625)"/>
       </defs>
       <use xlink:href="#DejaVuSans-4c"/>
       <use xlink:href="#DejaVuSans-61" x="55.712891"/>
       <use xlink:href="#DejaVuSans-79" x="116.992188"/>
       <use xlink:href="#DejaVuSans-65" x="176.171875"/>
       <use xlink:href="#DejaVuSans-72" x="237.695312"/>
       <use xlink:href="#DejaVuSans-73" x="278.808594"/>
       <use xlink:href="#DejaVuSans-20" x="330.908203"/>
       <use xlink:href="#DejaVuSans-38" x="362.695312"/>
       <use xlink:href="#DejaVuSans-36" x="426.318359"/>
       <use xlink:href="#DejaVuSans-20" x="489.941406"/>
       <use xlink:href="#DejaVuSans-74" x="521.728516"/>
       <use xlink:href="#DejaVuSans-6f" x="560.9375"/>
       <use xlink:href="#DejaVuSans-20" x="622.119141"/>
       <use xlink:href="#DejaVuSans-39" x="653.90625"/>
       <use xlink:href="#DejaVuSans-30" x="717.529297"/>
      </g>
     </g>
    </g>
    <g id="xtick_19">
     <g id="line2d_19">
      <g>
       <use xlink:href="#m12c4acecec" x="1169.456547" y="403.2" style="stroke: #000000; stroke-width: 0.8"/>
      </g>
     </g>
     <g id="text_19">
      <!-- Layers 91 to 95 -->
      <g transform="translate(1067.384578 519.296191) rotate(-45) scale(0.18 -0.18)">
       <use xlink:href="#DejaVuSans-4c"/>
       <use xlink:href="#DejaVuSans-61" x="55.712891"/>
       <use xlink:href="#DejaVuSans-79" x="116.992188"/>
       <use xlink:href="#DejaVuSans-65" x="176.171875"/>
       <use xlink:href="#DejaVuSans-72" x="237.695312"/>
       <use xlink:href="#DejaVuSans-73" x="278.808594"/>
       <use xlink:href="#DejaVuSans-20" x="330.908203"/>
       <use xlink:href="#DejaVuSans-39" x="362.695312"/>
       <use xlink:href="#DejaVuSans-31" x="426.318359"/>
       <use xlink:href="#DejaVuSans-20" x="489.941406"/>
       <use xlink:href="#DejaVuSans-74" x="521.728516"/>
       <use xlink:href="#DejaVuSans-6f" x="560.9375"/>
       <use xlink:href="#DejaVuSans-20" x="622.119141"/>
       <use xlink:href="#DejaVuSans-39" x="653.90625"/>
       <use xlink:href="#DejaVuSans-35" x="717.529297"/>
      </g>
     </g>
    </g>
    <g id="xtick_20">
     <g id="line2d_20">
      <g>
       <use xlink:href="#m12c4acecec" x="1226.504087" y="403.2" style="stroke: #000000; stroke-width: 0.8"/>
      </g>
     </g>
     <g id="text_20">
      <!-- Layers 96 to 100 -->
      <g transform="translate(1116.333978 527.394331) rotate(-45) scale(0.18 -0.18)">
       <use xlink:href="#DejaVuSans-4c"/>
       <use xlink:href="#DejaVuSans-61" x="55.712891"/>
       <use xlink:href="#DejaVuSans-79" x="116.992188"/>
       <use xlink:href="#DejaVuSans-65" x="176.171875"/>
       <use xlink:href="#DejaVuSans-72" x="237.695312"/>
       <use xlink:href="#DejaVuSans-73" x="278.808594"/>
       <use xlink:href="#DejaVuSans-20" x="330.908203"/>
       <use xlink:href="#DejaVuSans-39" x="362.695312"/>
       <use xlink:href="#DejaVuSans-36" x="426.318359"/>
       <use xlink:href="#DejaVuSans-20" x="489.941406"/>
       <use xlink:href="#DejaVuSans-74" x="521.728516"/>
       <use xlink:href="#DejaVuSans-6f" x="560.9375"/>
       <use xlink:href="#DejaVuSans-20" x="622.119141"/>
       <use xlink:href="#DejaVuSans-31" x="653.90625"/>
       <use xlink:href="#DejaVuSans-30" x="717.529297"/>
       <use xlink:href="#DejaVuSans-30" x="781.152344"/>
      </g>
     </g>
    </g>
    <g id="xtick_21">
     <g id="line2d_21">
      <g>
       <use xlink:href="#m12c4acecec" x="1283.551626" y="403.2" style="stroke: #000000; stroke-width: 0.8"/>
      </g>
     </g>
     <g id="text_21">
      <!-- Layers 101 to 105 -->
      <g transform="translate(1165.283377 535.492472) rotate(-45) scale(0.18 -0.18)">
       <use xlink:href="#DejaVuSans-4c"/>
       <use xlink:href="#DejaVuSans-61" x="55.712891"/>
       <use xlink:href="#DejaVuSans-79" x="116.992188"/>
       <use xlink:href="#DejaVuSans-65" x="176.171875"/>
       <use xlink:href="#DejaVuSans-72" x="237.695312"/>
       <use xlink:href="#DejaVuSans-73" x="278.808594"/>
       <use xlink:href="#DejaVuSans-20" x="330.908203"/>
       <use xlink:href="#DejaVuSans-31" x="362.695312"/>
       <use xlink:href="#DejaVuSans-30" x="426.318359"/>
       <use xlink:href="#DejaVuSans-31" x="489.941406"/>
       <use xlink:href="#DejaVuSans-20" x="553.564453"/>
       <use xlink:href="#DejaVuSans-74" x="585.351562"/>
       <use xlink:href="#DejaVuSans-6f" x="624.560547"/>
       <use xlink:href="#DejaVuSans-20" x="685.742188"/>
       <use xlink:href="#DejaVuSans-31" x="717.529297"/>
       <use xlink:href="#DejaVuSans-30" x="781.152344"/>
       <use xlink:href="#DejaVuSans-35" x="844.775391"/>
      </g>
     </g>
    </g>
    <g id="xtick_22">
     <g id="line2d_22">
      <g>
       <use xlink:href="#m12c4acecec" x="1340.599166" y="403.2" style="stroke: #000000; stroke-width: 0.8"/>
      </g>
     </g>
     <g id="text_22">
      <!-- Layers 106 to 109 -->
      <g transform="translate(1222.330916 535.492472) rotate(-45) scale(0.18 -0.18)">
       <use xlink:href="#DejaVuSans-4c"/>
       <use xlink:href="#DejaVuSans-61" x="55.712891"/>
       <use xlink:href="#DejaVuSans-79" x="116.992188"/>
       <use xlink:href="#DejaVuSans-65" x="176.171875"/>
       <use xlink:href="#DejaVuSans-72" x="237.695312"/>
       <use xlink:href="#DejaVuSans-73" x="278.808594"/>
       <use xlink:href="#DejaVuSans-20" x="330.908203"/>
       <use xlink:href="#DejaVuSans-31" x="362.695312"/>
       <use xlink:href="#DejaVuSans-30" x="426.318359"/>
       <use xlink:href="#DejaVuSans-36" x="489.941406"/>
       <use xlink:href="#DejaVuSans-20" x="553.564453"/>
       <use xlink:href="#DejaVuSans-74" x="585.351562"/>
       <use xlink:href="#DejaVuSans-6f" x="624.560547"/>
       <use xlink:href="#DejaVuSans-20" x="685.742188"/>
       <use xlink:href="#DejaVuSans-31" x="717.529297"/>
       <use xlink:href="#DejaVuSans-30" x="781.152344"/>
       <use xlink:href="#DejaVuSans-39" x="844.775391"/>
      </g>
     </g>
    </g>
    <g id="text_23">
     <!-- Grouped Layer Sections -->
     <g transform="translate(634.010625 555.816669) scale(0.18 -0.18)">
      <defs>
       <path id="DejaVuSans-47" d="M 3809 666 
L 3809 1919 
L 2778 1919 
L 2778 2438 
L 4434 2438 
L 4434 434 
Q 4069 175 3628 42 
Q 3188 -91 2688 -91 
Q 1594 -91 976 548 
Q 359 1188 359 2328 
Q 359 3472 976 4111 
Q 1594 4750 2688 4750 
Q 3144 4750 3555 4637 
Q 3966 4525 4313 4306 
L 4313 3634 
Q 3963 3931 3569 4081 
Q 3175 4231 2741 4231 
Q 1884 4231 1454 3753 
Q 1025 3275 1025 2328 
Q 1025 1384 1454 906 
Q 1884 428 2741 428 
Q 3075 428 3337 486 
Q 3600 544 3809 666 
z
" transform="scale(0.015625)"/>
       <path id="DejaVuSans-75" d="M 544 1381 
L 544 3500 
L 1119 3500 
L 1119 1403 
Q 1119 906 1312 657 
Q 1506 409 1894 409 
Q 2359 409 2629 706 
Q 2900 1003 2900 1516 
L 2900 3500 
L 3475 3500 
L 3475 0 
L 2900 0 
L 2900 538 
Q 2691 219 2414 64 
Q 2138 -91 1772 -91 
Q 1169 -91 856 284 
Q 544 659 544 1381 
z
M 1991 3584 
L 1991 3584 
z
" transform="scale(0.015625)"/>
       <path id="DejaVuSans-70" d="M 1159 525 
L 1159 -1331 
L 581 -1331 
L 581 3500 
L 1159 3500 
L 1159 2969 
Q 1341 3281 1617 3432 
Q 1894 3584 2278 3584 
Q 2916 3584 3314 3078 
Q 3713 2572 3713 1747 
Q 3713 922 3314 415 
Q 2916 -91 2278 -91 
Q 1894 -91 1617 61 
Q 1341 213 1159 525 
z
M 3116 1747 
Q 3116 2381 2855 2742 
Q 2594 3103 2138 3103 
Q 1681 3103 1420 2742 
Q 1159 2381 1159 1747 
Q 1159 1113 1420 752 
Q 1681 391 2138 391 
Q 2594 391 2855 752 
Q 3116 1113 3116 1747 
z
" transform="scale(0.015625)"/>
       <path id="DejaVuSans-64" d="M 2906 2969 
L 2906 4863 
L 3481 4863 
L 3481 0 
L 2906 0 
L 2906 525 
Q 2725 213 2448 61 
Q 2172 -91 1784 -91 
Q 1150 -91 751 415 
Q 353 922 353 1747 
Q 353 2572 751 3078 
Q 1150 3584 1784 3584 
Q 2172 3584 2448 3432 
Q 2725 3281 2906 2969 
z
M 947 1747 
Q 947 1113 1208 752 
Q 1469 391 1925 391 
Q 2381 391 2643 752 
Q 2906 1113 2906 1747 
Q 2906 2381 2643 2742 
Q 2381 3103 1925 3103 
Q 1469 3103 1208 2742 
Q 947 2381 947 1747 
z
" transform="scale(0.015625)"/>
       <path id="DejaVuSans-53" d="M 3425 4513 
L 3425 3897 
Q 3066 4069 2747 4153 
Q 2428 4238 2131 4238 
Q 1616 4238 1336 4038 
Q 1056 3838 1056 3469 
Q 1056 3159 1242 3001 
Q 1428 2844 1947 2747 
L 2328 2669 
Q 3034 2534 3370 2195 
Q 3706 1856 3706 1288 
Q 3706 609 3251 259 
Q 2797 -91 1919 -91 
Q 1588 -91 1214 -16 
Q 841 59 441 206 
L 441 856 
Q 825 641 1194 531 
Q 1563 422 1919 422 
Q 2459 422 2753 634 
Q 3047 847 3047 1241 
Q 3047 1584 2836 1778 
Q 2625 1972 2144 2069 
L 1759 2144 
Q 1053 2284 737 2584 
Q 422 2884 422 3419 
Q 422 4038 858 4394 
Q 1294 4750 2059 4750 
Q 2388 4750 2728 4690 
Q 3069 4631 3425 4513 
z
" transform="scale(0.015625)"/>
       <path id="DejaVuSans-63" d="M 3122 3366 
L 3122 2828 
Q 2878 2963 2633 3030 
Q 2388 3097 2138 3097 
Q 1578 3097 1268 2742 
Q 959 2388 959 1747 
Q 959 1106 1268 751 
Q 1578 397 2138 397 
Q 2388 397 2633 464 
Q 2878 531 3122 666 
L 3122 134 
Q 2881 22 2623 -34 
Q 2366 -91 2075 -91 
Q 1284 -91 818 406 
Q 353 903 353 1747 
Q 353 2603 823 3093 
Q 1294 3584 2113 3584 
Q 2378 3584 2631 3529 
Q 2884 3475 3122 3366 
z
" transform="scale(0.015625)"/>
       <path id="DejaVuSans-69" d="M 603 3500 
L 1178 3500 
L 1178 0 
L 603 0 
L 603 3500 
z
M 603 4863 
L 1178 4863 
L 1178 4134 
L 603 4134 
L 603 4863 
z
" transform="scale(0.015625)"/>
       <path id="DejaVuSans-6e" d="M 3513 2113 
L 3513 0 
L 2938 0 
L 2938 2094 
Q 2938 2591 2744 2837 
Q 2550 3084 2163 3084 
Q 1697 3084 1428 2787 
Q 1159 2491 1159 1978 
L 1159 0 
L 581 0 
L 581 3500 
L 1159 3500 
L 1159 2956 
Q 1366 3272 1645 3428 
Q 1925 3584 2291 3584 
Q 2894 3584 3203 3211 
Q 3513 2838 3513 2113 
z
" transform="scale(0.015625)"/>
      </defs>
      <use xlink:href="#DejaVuSans-47"/>
      <use xlink:href="#DejaVuSans-72" x="77.490234"/>
      <use xlink:href="#DejaVuSans-6f" x="116.353516"/>
      <use xlink:href="#DejaVuSans-75" x="177.535156"/>
      <use xlink:href="#DejaVuSans-70" x="240.914062"/>
      <use xlink:href="#DejaVuSans-65" x="304.390625"/>
      <use xlink:href="#DejaVuSans-64" x="365.914062"/>
      <use xlink:href="#DejaVuSans-20" x="429.390625"/>
      <use xlink:href="#DejaVuSans-4c" x="461.177734"/>
      <use xlink:href="#DejaVuSans-61" x="516.890625"/>
      <use xlink:href="#DejaVuSans-79" x="578.169922"/>
      <use xlink:href="#DejaVuSans-65" x="637.349609"/>
      <use xlink:href="#DejaVuSans-72" x="698.873047"/>
      <use xlink:href="#DejaVuSans-20" x="739.986328"/>
      <use xlink:href="#DejaVuSans-53" x="771.773438"/>
      <use xlink:href="#DejaVuSans-65" x="835.25"/>
      <use xlink:href="#DejaVuSans-63" x="896.773438"/>
      <use xlink:href="#DejaVuSans-74" x="951.753906"/>
      <use xlink:href="#DejaVuSans-69" x="990.962891"/>
      <use xlink:href="#DejaVuSans-6f" x="1018.746094"/>
      <use xlink:href="#DejaVuSans-6e" x="1079.927734"/>
      <use xlink:href="#DejaVuSans-73" x="1143.306641"/>
     </g>
    </g>
   </g>
   <g id="matplotlib.axis_2">
    <g id="ytick_1">
     <g id="line2d_23">
      <defs>
       <path id="m6611530c58" d="M 0 0 
L -3.5 0 
" style="stroke: #000000; stroke-width: 0.8"/>
      </defs>
      <g>
       <use xlink:href="#m6611530c58" x="57.6" y="403.2" style="stroke: #000000; stroke-width: 0.8"/>
      </g>
     </g>
     <g id="text_24">
      <!-- 0.0 -->
      <g transform="translate(34.696875 406.999219) scale(0.1 -0.1)">
       <defs>
        <path id="DejaVuSans-2e" d="M 684 794 
L 1344 794 
L 1344 0 
L 684 0 
L 684 794 
z
" transform="scale(0.015625)"/>
       </defs>
       <use xlink:href="#DejaVuSans-30"/>
       <use xlink:href="#DejaVuSans-2e" x="63.623047"/>
       <use xlink:href="#DejaVuSans-30" x="95.410156"/>
      </g>
     </g>
    </g>
    <g id="ytick_2">
     <g id="line2d_24">
      <g>
       <use xlink:href="#m6611530c58" x="57.6" y="327.497147" style="stroke: #000000; stroke-width: 0.8"/>
      </g>
     </g>
     <g id="text_25">
      <!-- 0.2 -->
      <g transform="translate(34.696875 331.296366) scale(0.1 -0.1)">
       <use xlink:href="#DejaVuSans-30"/>
       <use xlink:href="#DejaVuSans-2e" x="63.623047"/>
       <use xlink:href="#DejaVuSans-32" x="95.410156"/>
      </g>
     </g>
    </g>
    <g id="ytick_3">
     <g id="line2d_25">
      <g>
       <use xlink:href="#m6611530c58" x="57.6" y="251.794295" style="stroke: #000000; stroke-width: 0.8"/>
      </g>
     </g>
     <g id="text_26">
      <!-- 0.4 -->
      <g transform="translate(34.696875 255.593513) scale(0.1 -0.1)">
       <use xlink:href="#DejaVuSans-30"/>
       <use xlink:href="#DejaVuSans-2e" x="63.623047"/>
       <use xlink:href="#DejaVuSans-34" x="95.410156"/>
      </g>
     </g>
    </g>
    <g id="ytick_4">
     <g id="line2d_26">
      <g>
       <use xlink:href="#m6611530c58" x="57.6" y="176.091442" style="stroke: #000000; stroke-width: 0.8"/>
      </g>
     </g>
     <g id="text_27">
      <!-- 0.6 -->
      <g transform="translate(34.696875 179.890661) scale(0.1 -0.1)">
       <use xlink:href="#DejaVuSans-30"/>
       <use xlink:href="#DejaVuSans-2e" x="63.623047"/>
       <use xlink:href="#DejaVuSans-36" x="95.410156"/>
      </g>
     </g>
    </g>
    <g id="ytick_5">
     <g id="line2d_27">
      <g>
       <use xlink:href="#m6611530c58" x="57.6" y="100.388589" style="stroke: #000000; stroke-width: 0.8"/>
      </g>
     </g>
     <g id="text_28">
      <!-- 0.8 -->
      <g transform="translate(34.696875 104.187808) scale(0.1 -0.1)">
       <use xlink:href="#DejaVuSans-30"/>
       <use xlink:href="#DejaVuSans-2e" x="63.623047"/>
       <use xlink:href="#DejaVuSans-38" x="95.410156"/>
      </g>
     </g>
    </g>
    <g id="ytick_6">
     <g id="line2d_28">
      <g>
       <use xlink:href="#m6611530c58" x="57.6" y="24.685737" style="stroke: #000000; stroke-width: 0.8"/>
      </g>
     </g>
     <g id="text_29">
      <!-- 1.0 -->
      <g transform="translate(34.696875 28.484956) scale(0.1 -0.1)">
       <use xlink:href="#DejaVuSans-31"/>
       <use xlink:href="#DejaVuSans-2e" x="63.623047"/>
       <use xlink:href="#DejaVuSans-30" x="95.410156"/>
      </g>
     </g>
    </g>
    <g id="text_30">
     <!-- Proportion of Filters -->
     <g transform="translate(26.953437 292.287656) rotate(-90) scale(0.18 -0.18)">
      <defs>
       <path id="DejaVuSans-50" d="M 1259 4147 
L 1259 2394 
L 2053 2394 
Q 2494 2394 2734 2622 
Q 2975 2850 2975 3272 
Q 2975 3691 2734 3919 
Q 2494 4147 2053 4147 
L 1259 4147 
z
M 628 4666 
L 2053 4666 
Q 2838 4666 3239 4311 
Q 3641 3956 3641 3272 
Q 3641 2581 3239 2228 
Q 2838 1875 2053 1875 
L 1259 1875 
L 1259 0 
L 628 0 
L 628 4666 
z
" transform="scale(0.015625)"/>
       <path id="DejaVuSans-66" d="M 2375 4863 
L 2375 4384 
L 1825 4384 
Q 1516 4384 1395 4259 
Q 1275 4134 1275 3809 
L 1275 3500 
L 2222 3500 
L 2222 3053 
L 1275 3053 
L 1275 0 
L 697 0 
L 697 3053 
L 147 3053 
L 147 3500 
L 697 3500 
L 697 3744 
Q 697 4328 969 4595 
Q 1241 4863 1831 4863 
L 2375 4863 
z
" transform="scale(0.015625)"/>
       <path id="DejaVuSans-46" d="M 628 4666 
L 3309 4666 
L 3309 4134 
L 1259 4134 
L 1259 2759 
L 3109 2759 
L 3109 2228 
L 1259 2228 
L 1259 0 
L 628 0 
L 628 4666 
z
" transform="scale(0.015625)"/>
       <path id="DejaVuSans-6c" d="M 603 4863 
L 1178 4863 
L 1178 0 
L 603 0 
L 603 4863 
z
" transform="scale(0.015625)"/>
      </defs>
      <use xlink:href="#DejaVuSans-50"/>
      <use xlink:href="#DejaVuSans-72" x="58.552734"/>
      <use xlink:href="#DejaVuSans-6f" x="97.416016"/>
      <use xlink:href="#DejaVuSans-70" x="158.597656"/>
      <use xlink:href="#DejaVuSans-6f" x="222.074219"/>
      <use xlink:href="#DejaVuSans-72" x="283.255859"/>
      <use xlink:href="#DejaVuSans-74" x="324.369141"/>
      <use xlink:href="#DejaVuSans-69" x="363.578125"/>
      <use xlink:href="#DejaVuSans-6f" x="391.361328"/>
      <use xlink:href="#DejaVuSans-6e" x="452.542969"/>
      <use xlink:href="#DejaVuSans-20" x="515.921875"/>
      <use xlink:href="#DejaVuSans-6f" x="547.708984"/>
      <use xlink:href="#DejaVuSans-66" x="608.890625"/>
      <use xlink:href="#DejaVuSans-20" x="644.095703"/>
      <use xlink:href="#DejaVuSans-46" x="675.882812"/>
      <use xlink:href="#DejaVuSans-69" x="726.152344"/>
      <use xlink:href="#DejaVuSans-6c" x="753.935547"/>
      <use xlink:href="#DejaVuSans-74" x="781.71875"/>
      <use xlink:href="#DejaVuSans-65" x="820.927734"/>
      <use xlink:href="#DejaVuSans-72" x="882.451172"/>
      <use xlink:href="#DejaVuSans-73" x="923.564453"/>
     </g>
    </g>
   </g>
   <g id="patch_91">
    <path d="M 57.6 403.2 
L 57.6 5.76 
" style="fill: none; stroke: #000000; stroke-width: 0.8; stroke-linejoin: miter; stroke-linecap: square"/>
   </g>
   <g id="patch_92">
    <path d="M 1425.6 403.2 
L 1425.6 5.76 
" style="fill: none; stroke: #000000; stroke-width: 0.8; stroke-linejoin: miter; stroke-linecap: square"/>
   </g>
   <g id="patch_93">
    <path d="M 57.6 403.2 
L 1425.6 403.2 
" style="fill: none; stroke: #000000; stroke-width: 0.8; stroke-linejoin: miter; stroke-linecap: square"/>
   </g>
   <g id="patch_94">
    <path d="M 57.6 5.76 
L 1425.6 5.76 
" style="fill: none; stroke: #000000; stroke-width: 0.8; stroke-linejoin: miter; stroke-linecap: square"/>
   </g>
   <g id="legend_1">
    <g id="patch_95">
     <path d="M 1228.955625 99.421875 
L 1413 99.421875 
Q 1416.6 99.421875 1416.6 95.821875 
L 1416.6 18.36 
Q 1416.6 14.76 1413 14.76 
L 1228.955625 14.76 
Q 1225.355625 14.76 1225.355625 18.36 
L 1225.355625 95.821875 
Q 1225.355625 99.421875 1228.955625 99.421875 
z
" style="fill: #ffffff; opacity: 0.8; stroke: #cccccc; stroke-linejoin: miter"/>
    </g>
    <g id="patch_96">
     <path d="M 1232.555625 35.637187 
L 1268.555625 35.637187 
L 1268.555625 23.037187 
L 1232.555625 23.037187 
z
" style="fill: #32cd32"/>
    </g>
    <g id="text_31">
     <!-- Always On -->
     <g transform="translate(1282.955625 35.637187) scale(0.18 -0.18)">
      <defs>
       <path id="DejaVuSans-41" d="M 2188 4044 
L 1331 1722 
L 3047 1722 
L 2188 4044 
z
M 1831 4666 
L 2547 4666 
L 4325 0 
L 3669 0 
L 3244 1197 
L 1141 1197 
L 716 0 
L 50 0 
L 1831 4666 
z
" transform="scale(0.015625)"/>
       <path id="DejaVuSans-77" d="M 269 3500 
L 844 3500 
L 1563 769 
L 2278 3500 
L 2956 3500 
L 3675 769 
L 4391 3500 
L 4966 3500 
L 4050 0 
L 3372 0 
L 2619 2869 
L 1863 0 
L 1184 0 
L 269 3500 
z
" transform="scale(0.015625)"/>
       <path id="DejaVuSans-4f" d="M 2522 4238 
Q 1834 4238 1429 3725 
Q 1025 3213 1025 2328 
Q 1025 1447 1429 934 
Q 1834 422 2522 422 
Q 3209 422 3611 934 
Q 4013 1447 4013 2328 
Q 4013 3213 3611 3725 
Q 3209 4238 2522 4238 
z
M 2522 4750 
Q 3503 4750 4090 4092 
Q 4678 3434 4678 2328 
Q 4678 1225 4090 567 
Q 3503 -91 2522 -91 
Q 1538 -91 948 565 
Q 359 1222 359 2328 
Q 359 3434 948 4092 
Q 1538 4750 2522 4750 
z
" transform="scale(0.015625)"/>
      </defs>
      <use xlink:href="#DejaVuSans-41"/>
      <use xlink:href="#DejaVuSans-6c" x="68.408203"/>
      <use xlink:href="#DejaVuSans-77" x="96.191406"/>
      <use xlink:href="#DejaVuSans-61" x="177.978516"/>
      <use xlink:href="#DejaVuSans-79" x="239.257812"/>
      <use xlink:href="#DejaVuSans-73" x="298.4375"/>
      <use xlink:href="#DejaVuSans-20" x="350.537109"/>
      <use xlink:href="#DejaVuSans-4f" x="382.324219"/>
      <use xlink:href="#DejaVuSans-6e" x="461.035156"/>
     </g>
    </g>
    <g id="patch_97">
     <path d="M 1232.555625 62.057812 
L 1268.555625 62.057812 
L 1268.555625 49.457812 
L 1232.555625 49.457812 
z
" style="fill: #ff6347"/>
    </g>
    <g id="text_32">
     <!-- Always Off -->
     <g transform="translate(1282.955625 62.057812) scale(0.18 -0.18)">
      <use xlink:href="#DejaVuSans-41"/>
      <use xlink:href="#DejaVuSans-6c" x="68.408203"/>
      <use xlink:href="#DejaVuSans-77" x="96.191406"/>
      <use xlink:href="#DejaVuSans-61" x="177.978516"/>
      <use xlink:href="#DejaVuSans-79" x="239.257812"/>
      <use xlink:href="#DejaVuSans-73" x="298.4375"/>
      <use xlink:href="#DejaVuSans-20" x="350.537109"/>
      <use xlink:href="#DejaVuSans-4f" x="382.324219"/>
      <use xlink:href="#DejaVuSans-66" x="461.035156"/>
      <use xlink:href="#DejaVuSans-66" x="496.240234"/>
     </g>
    </g>
    <g id="patch_98">
     <path d="M 1232.555625 88.478437 
L 1268.555625 88.478437 
L 1268.555625 75.878437 
L 1232.555625 75.878437 
z
" style="fill: #808080"/>
    </g>
    <g id="text_33">
     <!-- Blocked Layer -->
     <g transform="translate(1282.955625 88.478437) scale(0.18 -0.18)">
      <defs>
       <path id="DejaVuSans-42" d="M 1259 2228 
L 1259 519 
L 2272 519 
Q 2781 519 3026 730 
Q 3272 941 3272 1375 
Q 3272 1813 3026 2020 
Q 2781 2228 2272 2228 
L 1259 2228 
z
M 1259 4147 
L 1259 2741 
L 2194 2741 
Q 2656 2741 2882 2914 
Q 3109 3088 3109 3444 
Q 3109 3797 2882 3972 
Q 2656 4147 2194 4147 
L 1259 4147 
z
M 628 4666 
L 2241 4666 
Q 2963 4666 3353 4366 
Q 3744 4066 3744 3513 
Q 3744 3084 3544 2831 
Q 3344 2578 2956 2516 
Q 3422 2416 3680 2098 
Q 3938 1781 3938 1306 
Q 3938 681 3513 340 
Q 3088 0 2303 0 
L 628 0 
L 628 4666 
z
" transform="scale(0.015625)"/>
       <path id="DejaVuSans-6b" d="M 581 4863 
L 1159 4863 
L 1159 1991 
L 2875 3500 
L 3609 3500 
L 1753 1863 
L 3688 0 
L 2938 0 
L 1159 1709 
L 1159 0 
L 581 0 
L 581 4863 
z
" transform="scale(0.015625)"/>
      </defs>
      <use xlink:href="#DejaVuSans-42"/>
      <use xlink:href="#DejaVuSans-6c" x="68.603516"/>
      <use xlink:href="#DejaVuSans-6f" x="96.386719"/>
      <use xlink:href="#DejaVuSans-63" x="157.568359"/>
      <use xlink:href="#DejaVuSans-6b" x="212.548828"/>
      <use xlink:href="#DejaVuSans-65" x="266.833984"/>
      <use xlink:href="#DejaVuSans-64" x="328.357422"/>
      <use xlink:href="#DejaVuSans-20" x="391.833984"/>
      <use xlink:href="#DejaVuSans-4c" x="423.621094"/>
      <use xlink:href="#DejaVuSans-61" x="479.333984"/>
      <use xlink:href="#DejaVuSans-79" x="540.613281"/>
      <use xlink:href="#DejaVuSans-65" x="599.792969"/>
      <use xlink:href="#DejaVuSans-72" x="661.316406"/>
     </g>
    </g>
   </g>
  </g>
 </g>
 <defs>
  <clipPath id="p216f1a87f9">
   <rect x="57.6" y="5.76" width="1368" height="397.44"/>
  </clipPath>
 </defs>
</svg>
